<?xml version="1.0" encoding="UTF-8"?>
<svg xmlns="http://www.w3.org/2000/svg" width="125" height="60" viewBox="0 0 125 60" fill="none">
  <rect width="125" height="60.0001" rx="6" fill="black"></rect>
  <g clip-path="url(#clip0_3692_310)">
    <path d="M96.0437 36.2581H98.7303C98.7577 36.3083 98.7866 36.3569 98.8124 36.4071C99.1376 37.0666 99.6695 37.4693 100.373 37.6455C101.014 37.8066 101.665 37.8127 102.312 37.6805C103.379 37.4632 103.981 36.787 104.193 35.74C104.246 35.4755 104.283 35.2096 104.283 34.9391C104.283 34.4361 104.283 33.9347 104.283 33.4317C104.215 33.4134 104.216 33.4757 104.198 33.5031C103.494 34.5942 102.481 35.1321 101.198 35.1914C100.251 35.2354 99.3488 35.0637 98.5115 34.6139C97.3475 33.9909 96.6333 33.0047 96.2504 31.7632C96.0422 31.0884 95.951 30.394 95.948 29.6904C95.9434 27.8335 95.9464 25.9765 95.948 24.1196C95.948 24.0436 95.9328 23.9646 95.9647 23.881H98.6346C98.6741 23.9615 98.6559 24.0405 98.6559 24.1165C98.6559 25.9735 98.6559 27.8304 98.6559 29.6874C98.6559 30.1964 98.7395 30.6888 98.9385 31.1568C99.25 31.8862 99.791 32.3604 100.561 32.5655C101.178 32.7296 101.797 32.7342 102.408 32.5488C103.353 32.2601 103.903 31.596 104.155 30.6614C104.256 30.2907 104.289 29.9108 104.289 29.5263C104.289 27.7256 104.289 25.9264 104.289 24.1256V23.884H106.974C107.017 23.9342 106.998 23.9934 106.998 24.0481C106.998 27.5842 107.003 31.1204 106.997 34.6565C106.997 35.4527 106.9 36.2384 106.62 36.9921C106.093 38.4114 105.085 39.3232 103.655 39.7836C103.093 39.9644 102.514 40.0556 101.925 40.089C101.017 40.1407 100.125 40.0663 99.2607 39.7821C97.5891 39.2305 96.533 38.0923 96.0726 36.3979C96.0619 36.3569 96.0574 36.3144 96.0467 36.2581H96.0437Z" fill="#FDFDFD"></path>
    <path d="M65.4694 33.4986V39.7973H62.81C62.766 39.7548 62.7812 39.7016 62.7812 39.6545C62.7812 36.1959 62.7721 32.7357 62.7857 29.2771C62.7903 28.183 63.0714 27.1466 63.6458 26.206C64.3524 25.0511 65.3675 24.2776 66.6562 23.8841C68.1302 23.4327 69.6118 23.4464 71.0615 23.9752C72.7102 24.5755 73.8439 25.7182 74.4122 27.3837C74.9258 28.8881 74.9304 30.4107 74.3529 31.8969C73.663 33.6733 72.3319 34.7446 70.4932 35.1868C69.5905 35.4041 68.6787 35.4011 67.7807 35.1397C66.8795 34.8784 66.1471 34.3708 65.597 33.6065C65.5681 33.567 65.5377 33.5274 65.5089 33.4879L65.4709 33.4971L65.4694 33.4986ZM65.4754 29.3455C65.48 29.7056 65.4997 30.0658 65.5909 30.4168C65.8584 31.441 66.4586 32.1856 67.4524 32.5822C68.0861 32.8345 68.7486 32.8816 69.4158 32.7585C70.4233 32.5731 71.2013 32.0474 71.6617 31.1204C72.1602 30.1159 72.1829 29.075 71.7727 28.0356C71.4535 27.2241 70.8731 26.6573 70.0601 26.3367C69.4887 26.1118 68.896 26.0449 68.2882 26.127C67.0528 26.2911 66.1836 26.9354 65.717 28.1009C65.5575 28.4991 65.4906 28.917 65.4754 29.3455Z" fill="#FDFDFD"></path>
    <path d="M22.7761 35.7414C23.7912 34.1778 24.8033 32.6202 25.8138 31.0626L25.8548 31.0687C25.87 31.7327 25.8867 32.3968 25.9019 33.0472C25.9627 33.1095 26.022 33.0897 26.0767 33.0897C27.8789 33.0897 29.6797 33.0928 31.4819 33.0897C31.7585 33.0897 32.032 33.0487 32.2949 32.9514C32.8556 32.7417 33.1808 32.3375 33.2872 31.754C33.4042 31.1097 33.2918 30.5231 32.81 30.049C32.4529 29.6965 32.0047 29.5612 31.5123 29.5612C30.0231 29.5612 28.5339 29.5612 27.0447 29.5612H26.8107C26.8395 29.4077 27.999 27.4414 28.3303 26.984C28.6205 26.984 28.932 26.9855 29.242 26.984C29.8377 26.9794 30.4334 26.9733 31.0291 26.9672C31.2494 26.9642 31.4652 26.9353 31.6764 26.867C32.3131 26.6603 32.6459 26.209 32.728 25.5601C32.7569 25.3276 32.7447 25.0951 32.6991 24.8626C32.5806 24.2624 32.2159 23.9037 31.6324 23.7548C31.4044 23.6971 31.1719 23.6773 30.9379 23.6773C29.7602 23.6773 28.5825 23.6773 27.4063 23.6773C27.3364 23.6773 27.265 23.6895 27.1708 23.656C27.6525 22.764 28.1327 21.8766 28.6099 20.9937C28.6418 20.9891 28.6615 20.9831 28.6828 20.9831C29.6964 20.9846 30.7115 20.9724 31.7251 20.9937C32.3587 21.0074 32.9742 21.1426 33.5562 21.4101C34.5135 21.8477 35.1563 22.5665 35.4526 23.5755C35.6882 24.3809 35.6988 25.1954 35.4618 26.0053C35.208 26.8761 34.6746 27.531 33.8935 27.9869C33.8343 28.0218 33.7613 28.0386 33.7173 28.1039C33.7598 28.1449 33.8145 28.1556 33.8647 28.1753C35.2931 28.7269 36.1 29.7618 36.2747 31.2829C36.3598 32.0199 36.2793 32.7417 35.9997 33.4301C35.5636 34.506 34.7536 35.1761 33.6625 35.5256C33.1185 35.7004 32.5563 35.7688 31.9864 35.7703C28.9867 35.7749 25.9855 35.7718 22.9858 35.7703C22.925 35.7703 22.8612 35.7855 22.7792 35.7429L22.7761 35.7414Z" fill="#FDFDFD"></path>
    <path d="M46.8344 31.83H49.6882C49.7155 31.8954 49.673 31.9425 49.6517 31.9911C49.0849 33.2889 48.161 34.2492 46.8556 34.7948C44.9881 35.5759 43.1068 35.5561 41.2787 34.6717C39.826 33.9681 38.8777 32.8011 38.431 31.2496C38.0025 29.7603 38.0754 28.2878 38.7258 26.8746C39.4962 25.1985 40.8304 24.1819 42.6084 23.761C43.979 23.4358 45.3436 23.5026 46.6566 24.0406C48.4603 24.7791 49.559 26.127 50.0119 28.0113C50.1319 28.5097 50.1714 29.0173 50.1745 29.5278C50.1745 29.8105 50.1745 30.0947 50.1745 30.4047C49.4116 30.4214 48.6549 30.4107 47.8996 30.4123C47.1337 30.4138 46.3679 30.4123 45.602 30.4123H41.0599C41.0158 30.473 41.0417 30.5186 41.0538 30.5642C41.3927 31.8635 42.3865 32.7129 43.7237 32.8588C44.2298 32.9135 44.7282 32.8862 45.2236 32.7828C45.8694 32.6491 46.418 32.3497 46.8329 31.83H46.8344ZM47.2811 28.2438C47.2842 28.2119 47.2887 28.1967 47.2857 28.1845C47.0258 27.3533 46.5198 26.7242 45.7251 26.3504C45.0306 26.0252 44.2966 25.9613 43.5475 26.0844C42.3515 26.2805 41.5492 26.9536 41.1359 28.0918C41.1192 28.1374 41.0979 28.1845 41.1207 28.2438H47.2811Z" fill="#FDFDFD"></path>
    <path d="M93.7141 35.0349H91.2615V32.9789C91.2508 32.9773 91.2402 32.9758 91.2311 32.9743C91.187 33.0594 91.1445 33.146 91.0989 33.2296C90.5093 34.3222 89.5899 34.9939 88.3849 35.2218C86.5705 35.5652 84.9354 35.1321 83.5404 33.9104C82.6226 33.1065 82.0907 32.0701 81.8673 30.8803C81.6561 29.7558 81.6956 28.6358 82.0497 27.5433C82.6378 25.7273 83.8413 24.4995 85.6587 23.9114C87.23 23.4023 88.8073 23.4358 90.3391 24.0664C92.0031 24.7502 93.0379 26.01 93.512 27.7347C93.6655 28.2894 93.7354 28.8577 93.7339 29.4352C93.7308 31.2207 93.7339 33.0077 93.7324 34.7933C93.7324 34.8708 93.746 34.9483 93.7156 35.0349H93.7141ZM84.4704 29.5157C84.478 29.7588 84.4993 30.0688 84.5752 30.3728C84.826 31.3651 85.3913 32.1051 86.3349 32.5275C87.0005 32.8254 87.7026 32.8862 88.4153 32.76C89.5033 32.5655 90.3026 31.9744 90.7403 30.9502C91.1506 29.9898 91.1521 29.0051 90.7737 28.0356C90.4546 27.2165 89.8711 26.6406 89.0459 26.323C88.4593 26.0981 87.85 26.0404 87.2285 26.1331C86.2574 26.2774 85.4855 26.7394 84.9658 27.5843C84.6163 28.1541 84.4765 28.7832 84.4704 29.5157Z" fill="#FDFDFD"></path>
    <path d="M20.7915 29.1889H18.0289C18.0152 29.1631 18.0106 29.157 18.0076 29.1509C18.0046 29.1448 17.9985 29.1372 18 29.1312C18.0137 29.0765 18.0258 29.0218 18.0456 28.9686C18.9999 26.3108 19.9542 23.653 20.91 20.9922H27.0158C26.8137 21.4192 26.5827 21.8052 26.3745 22.2018C26.1633 22.603 25.9445 22.9996 25.7287 23.3992C25.5129 23.7974 25.2986 24.197 25.0829 24.5967C24.8671 24.9948 24.6513 25.3945 24.4355 25.7926C24.2212 26.1907 24.0085 26.5874 23.779 27.0144H26.4034C26.414 27.0402 26.4186 27.0478 26.4201 27.0539C26.4216 27.06 26.4262 27.0691 26.4231 27.0736C23.6787 31.4136 20.8918 35.7293 18.1033 40.0419C18.0805 40.0769 18.0653 40.1194 18.0076 40.1376C18.8464 36.4708 19.7141 32.8177 20.7915 29.1874V29.1889Z" fill="#DB146D"></path>
    <path d="M51.9266 19.9224H54.6132V23.8688H60.3786V26.3215H54.6543C54.5965 26.399 54.6163 26.4658 54.6163 26.5266C54.6163 27.873 54.6117 29.2193 54.6163 30.5657C54.6163 30.9046 54.6315 31.245 54.7257 31.5747C54.9339 32.3011 55.4338 32.7251 56.183 32.801C56.4869 32.8314 56.7923 32.8269 57.0917 32.7524C57.7998 32.5761 58.1691 32.0929 58.3074 31.4015C58.3469 31.1994 58.3636 30.9958 58.3606 30.7891C58.359 30.6842 58.3606 30.5794 58.3606 30.4639H61.07C61.07 30.6037 61.073 30.7374 61.07 30.8696C61.0533 31.4957 60.9743 32.1111 60.76 32.7023C60.336 33.8784 59.5276 34.6732 58.3393 35.0546C57.1479 35.4391 55.9353 35.4467 54.7394 35.085C53.3352 34.6595 52.4691 33.6991 52.1013 32.2874C51.9843 31.8407 51.925 31.3848 51.925 30.9213C51.925 27.329 51.925 23.7351 51.925 20.1428V19.9209L51.9266 19.9224Z" fill="#FDFDFD"></path>
    <path d="M79.5864 35.0394H76.9271V19H79.5864V35.0394Z" fill="#FDFDFD"></path>
  </g>
  <defs>
    <clipPath id="clip0_3692_310">
      <rect width="89" height="21.1377" fill="white" transform="translate(18 19)"></rect>
    </clipPath>
  </defs>
</svg>
