<?xml version="1.0" encoding="UTF-8"?>
<svg xmlns="http://www.w3.org/2000/svg" width="125" height="60" viewBox="0 0 125 60" fill="none">
  <rect width="125" height="60.0001" rx="6" fill="#07192B"></rect>
  <g clip-path="url(#clip0_3362_217)">
    <path d="M20.5727 39.9979C20.3875 40.01 20.2026 39.9709 20.0381 39.885C20.003 39.863 19.9658 39.8447 19.927 39.8304C19.3933 39.6081 18.8815 39.3365 18.3984 39.019C18.1743 38.8816 17.9409 38.7404 17.7056 38.6086C17.0492 38.2321 16.3947 37.8556 15.7421 37.4791L15.4559 37.3153C14.7217 36.8923 13.9876 36.4669 13.2534 36.0389L13.0519 35.9222C12.8637 35.8111 12.6754 35.7057 12.4966 35.5909C12.143 35.3765 11.8531 35.0715 11.6572 34.7073C11.4612 34.3432 11.3662 33.9333 11.3821 33.5201C11.3821 31.0426 11.3727 28.4052 11.3821 25.7583C11.3821 24.77 11.8283 24.0433 12.7394 23.5407C13.3456 23.2037 13.9499 22.8479 14.5354 22.5034L15.4221 21.9838L16.4085 21.4191L17.7545 20.6416L18.0237 20.4853C18.4341 20.25 18.8577 20.0053 19.27 19.7511C19.6367 19.5108 20.0645 19.3801 20.503 19.3746C20.846 19.3791 21.1845 19.4521 21.4989 19.5892C21.9561 19.7952 22.3967 20.0363 22.8167 20.3103C23.0671 20.4646 23.3269 20.6246 23.5923 20.7696C24.1232 21.0595 24.6559 21.372 25.1717 21.6751L25.8325 22.061L26.6157 22.5091C27.2538 22.8724 27.9109 23.2489 28.5453 23.6386C29.3661 24.1394 29.7633 24.8641 29.7595 25.8543C29.7595 27.0642 29.7595 28.2747 29.7595 29.4858C29.7595 30.813 29.7595 32.1402 29.7595 33.4674C29.7762 33.8305 29.71 34.1926 29.5658 34.5263C29.4216 34.86 29.2033 35.1565 28.9274 35.3932C28.8577 35.4557 28.7821 35.5112 28.7015 35.5589C27.316 36.3759 26.1959 37.0329 25.1717 37.6297C24.1476 38.2264 23.0294 38.8665 21.7982 39.563C21.6335 39.6517 21.4638 39.7309 21.2899 39.8002L21.2033 39.836C21.0095 39.9338 20.7971 39.9896 20.5802 39.9998L20.5727 39.9979Z" fill="#07192B"></path>
    <path d="M20.5012 19.7531C20.7945 19.7585 21.0838 19.8225 21.3521 19.9413C21.7908 20.1397 22.2137 20.3713 22.6171 20.6341C22.8713 20.7922 23.133 20.9541 23.4097 21.1047C23.933 21.3909 24.4639 21.7015 24.976 22.0027L25.6405 22.3905C25.9022 22.543 26.1639 22.6917 26.4274 22.8404C27.0599 23.2019 27.717 23.5765 28.3438 23.9605C29.0536 24.3935 29.3811 24.9959 29.3792 25.8563C29.3792 27.0649 29.3792 28.2942 29.3792 29.4839C29.3792 30.7904 29.3792 32.1402 29.3792 33.4693C29.3947 33.7774 29.3399 34.0849 29.2188 34.3687C29.0978 34.6525 28.9139 34.905 28.6808 35.1071C28.6263 35.1553 28.5677 35.1988 28.5057 35.237C27.1239 36.0521 26.0038 36.7091 24.9797 37.3078C23.9556 37.9064 22.8393 38.5427 21.6081 39.2412C21.4563 39.3206 21.3004 39.3923 21.1412 39.4558L21.049 39.4953C20.9043 39.5691 20.7461 39.6126 20.584 39.6233C20.4701 39.6344 20.3552 39.6156 20.2508 39.5687C20.1943 39.5333 20.1344 39.5036 20.0719 39.4802C19.5599 39.2659 19.069 39.0044 18.6054 38.699C18.3777 38.5616 18.1442 38.4185 17.9014 38.2811C17.2481 37.914 16.5836 37.528 15.9435 37.1647L15.6555 36.9972C14.9702 36.6037 14.2511 36.1858 13.4567 35.7246L13.2515 35.606C13.0632 35.4968 12.875 35.3932 12.715 35.2859C12.4131 35.1047 12.166 34.8449 12.0003 34.5342C11.8345 34.2235 11.7562 33.8737 11.7737 33.522C11.7737 31.0483 11.7643 28.4128 11.7737 25.7621C11.7737 24.9112 12.1502 24.3107 12.9371 23.8796C13.547 23.5407 14.1532 23.1831 14.7406 22.8385C15.0343 22.6641 15.3292 22.4909 15.6254 22.319L16.6137 21.7542L17.9578 20.9767L18.2271 20.8223C18.6393 20.5833 19.0648 20.3385 19.4827 20.0825C19.7907 19.8807 20.1499 19.771 20.5181 19.7662M20.5181 19.0132C20.0105 19.0181 19.5145 19.1662 19.0874 19.4406C18.5904 19.7455 18.084 20.0336 17.5813 20.3253L15.23 21.6638C14.3377 22.1815 13.4548 22.7162 12.5531 23.2169C11.5459 23.7817 11.0056 24.6119 11.0018 25.7621C10.9906 28.3488 11.0018 30.9373 11.0018 33.5257C10.9858 34.0028 11.0965 34.4756 11.3227 34.8959C11.5489 35.3162 11.8825 35.6691 12.2895 35.9185C12.5418 36.0804 12.8034 36.2253 13.0613 36.3759C13.7955 36.8026 14.5304 37.2281 15.2658 37.6523C16.0188 38.0834 16.7718 38.5164 17.5249 38.9399C18.2779 39.3635 18.9819 39.8812 19.799 40.1862C19.8135 40.1916 19.8274 40.1985 19.8404 40.2069C20.0647 40.3322 20.3199 40.3916 20.5765 40.3782C20.8421 40.3692 21.1031 40.3051 21.3427 40.19C21.5597 40.1054 21.7716 40.0079 21.9771 39.8982C23.1066 39.2581 24.2317 38.613 25.3525 37.9629C26.5335 37.2777 27.7107 36.5874 28.8841 35.8921C28.9835 35.832 29.0773 35.7634 29.1646 35.6869C29.4812 35.4148 29.7323 35.0747 29.8991 34.692C30.066 34.3094 30.1444 33.894 30.1285 33.4768C30.1379 30.9391 30.1285 28.3939 30.1285 25.8638C30.1517 25.3532 30.0337 24.8461 29.7877 24.3981C29.5416 23.9501 29.1769 23.5786 28.7335 23.3242C27.8393 22.7764 26.9206 22.2681 26.0132 21.7448C25.2602 21.3118 24.526 20.8638 23.7674 20.4496C23.0539 20.058 22.395 19.5686 21.6401 19.2523C21.2793 19.0954 20.8908 19.0122 20.4974 19.0076L20.5181 19.0132Z" fill="#1FE588"></path>
    <path d="M37.2765 33.5465L37.2313 34.2995C36.8962 34.4049 36.563 34.3428 36.2355 34.3522C35.9079 34.3616 35.5709 34.3522 35.266 34.3522L35.2019 34.2882C35.2019 34.275 35.1756 34.2637 35.1737 34.2487C35.1615 34.1834 35.154 34.1173 35.1511 34.051C35.1511 30.9787 35.1511 27.9039 35.1511 24.8265C35.1625 24.7622 35.1801 24.6991 35.2038 24.6383C35.8552 24.6213 36.5216 24.6383 37.1918 24.6383C37.3029 25.0769 37.2351 25.4929 37.2464 25.9033C37.2577 26.3137 37.2464 26.7712 37.2464 27.2061V28.4485C37.4196 28.4975 37.4158 28.3601 37.4704 28.2942C37.6619 28.0738 37.8954 27.8937 38.1572 27.7644C38.419 27.6351 38.7039 27.5592 38.9953 27.5411C39.2419 27.5148 39.496 27.5411 39.7483 27.5411C40.2712 27.5278 40.7809 27.7067 41.1809 28.0438C41.8912 28.6109 42.3551 29.4303 42.4761 30.3311C42.599 31.0698 42.5183 31.828 42.2427 32.5242C41.7588 33.8138 40.571 34.6967 39.0856 34.5423C38.5295 34.5078 38.0056 34.2699 37.6135 33.874C37.5307 33.7837 37.4309 33.6971 37.2765 33.5465ZM40.3639 31.0879C40.3319 30.3348 40.0759 29.74 39.3285 29.3653C38.7637 29.0848 37.6982 29.4933 37.4629 29.9301C37.2269 30.316 37.1194 30.7669 37.156 31.2178C37.2765 32.2682 38.0013 32.9121 39.1195 32.7502C39.7408 32.6598 40.4072 31.8428 40.3639 31.0879Z" fill="white"></path>
    <path d="M86.249 28.4297V24.6646C86.6256 24.6646 86.9512 24.6514 87.2788 24.6495C87.6064 24.6476 87.9415 24.6495 88.237 24.6495C88.2841 24.7003 88.2973 24.7116 88.3067 24.7248C88.3161 24.738 88.3293 24.7531 88.3293 24.7662C88.3293 24.9168 88.35 25.0656 88.35 25.2143C88.35 28.2176 88.3456 31.2196 88.3368 34.2204C88.3368 34.2486 88.3085 34.2787 88.2784 34.3371H86.3036C86.1963 34.1112 86.2848 33.8683 86.2152 33.6029C85.9347 33.7761 85.7521 34.0396 85.4791 34.1808C84.9134 34.5033 84.2537 34.6203 83.6116 34.5122C82.1602 34.2505 81.4184 33.2885 81.0664 31.9613C80.9742 31.6187 81.0664 31.2309 81.0306 30.8657C81.0049 30.2283 81.1665 29.5974 81.4956 29.0509C81.6874 28.6696 81.9656 28.3384 82.3082 28.0837C82.6507 27.8291 83.0481 27.6581 83.4685 27.5844C84.4098 27.4244 85.3774 27.479 86.0759 28.3242C86.1003 28.36 86.153 28.3751 86.249 28.4297ZM86.3338 31.0765C86.3783 30.7221 86.2977 30.3632 86.106 30.0618C85.6504 29.1864 84.5303 28.9323 83.6925 29.6853C82.996 30.3216 82.9075 31.4154 83.5928 32.2588C83.9693 32.7181 84.4757 32.8066 85.031 32.7595C85.2313 32.7525 85.4267 32.6963 85.6001 32.5958C85.7734 32.4954 85.9194 32.3537 86.025 32.1835C86.2283 31.8446 86.4411 31.4926 86.3338 31.0765Z" fill="white"></path>
    <path d="M56.4747 27.6748H58.4326C58.5568 27.9402 58.4326 28.2189 58.5323 28.4994C58.69 28.415 58.8274 28.2975 58.9352 28.1549C59.1256 27.9558 59.3557 27.7989 59.6106 27.6945C59.8655 27.59 60.1395 27.5404 60.4149 27.5487C60.9458 27.5487 61.4729 27.5186 61.9774 27.7783C62.6645 28.134 63.1996 28.7265 63.4834 29.4463C63.6557 29.8275 63.7326 30.2449 63.7075 30.6624C63.6904 30.9131 63.6904 31.1647 63.7075 31.4154C63.7828 32.6108 62.7662 34.3145 61.0813 34.5442C60.6765 34.6163 60.2603 34.5907 59.8674 34.4696C59.4745 34.3484 59.1162 34.1352 58.8223 33.8477C58.7444 33.7393 58.6354 33.6572 58.5098 33.6123C58.4857 33.9054 58.4794 34.1996 58.4909 34.4934C58.4909 34.7776 58.4909 35.0581 58.4909 35.3443V37.1007C58.1332 37.2174 57.8 37.1534 57.4744 37.1647C57.1487 37.176 56.8079 37.1647 56.5161 37.1647C56.4679 37.1327 56.4299 37.0874 56.4068 37.0343C56.3838 36.9812 56.3766 36.9225 56.3862 36.8654V27.9515C56.3812 27.9018 56.3864 27.8516 56.4016 27.8039C56.4168 27.7563 56.4417 27.7124 56.4747 27.6748ZM61.5952 31.037C61.6269 30.6533 61.5193 30.2711 61.2922 29.9602C61.152 29.7215 60.9451 29.5291 60.6968 29.4067C60.4486 29.2842 60.17 29.2371 59.8953 29.2712C59.276 29.3465 58.7658 29.6364 58.5305 30.2784C58.4064 30.5795 58.3607 30.9072 58.3976 31.2308C58.4344 31.5544 58.5527 31.8634 58.7413 32.1289C58.9497 32.4475 59.2719 32.6746 59.642 32.7638C60.0121 32.853 60.4024 32.7977 60.733 32.609C61.0213 32.4678 61.2588 32.2409 61.4131 31.9596C61.5675 31.6782 61.6311 31.356 61.5952 31.037Z" fill="white"></path>
    <path d="M96.7442 27.8121V34.3126C96.4034 34.4067 96.0702 34.3502 95.7445 34.3615C95.4189 34.3728 95.08 34.3615 94.7637 34.3615C94.5755 34.1187 94.7412 33.8419 94.6169 33.6236C94.5322 33.6236 94.4889 33.6781 94.4475 33.7271C93.6323 34.6684 92.1884 34.7964 91.1436 34.2448C90.7463 34.0453 90.3984 33.7599 90.1252 33.4092C89.852 33.0585 89.6603 32.6513 89.5642 32.2173C89.3401 31.2252 89.3194 30.218 89.7976 29.2937C90.3398 28.2414 91.1606 27.5523 92.4332 27.5392C92.9668 27.5201 93.496 27.6422 93.9674 27.8931C94.2084 28.0249 94.3628 28.2451 94.6075 28.4127C94.7167 28.2244 94.6188 28.0098 94.696 27.8328C95.0292 27.7255 96.1794 27.7086 96.7442 27.8121ZM94.76 31.1292C94.76 30.0863 94.295 29.4782 93.4083 29.2843C92.9113 29.177 92.1395 29.4876 91.874 29.9225C91.6573 30.2429 91.5415 30.6209 91.5415 31.0078C91.5415 31.3946 91.6573 31.7726 91.874 32.093C91.9558 32.2492 92.0703 32.3858 92.2096 32.4937C92.349 32.6015 92.51 32.6781 92.6816 32.718C93.5514 32.8687 94.3929 32.703 94.679 31.6412C94.7282 31.4747 94.756 31.3027 94.7619 31.1292H94.76Z" fill="white"></path>
    <path d="M69.596 28.4522C69.613 28.1962 69.6243 28.0155 69.6356 27.8404C69.9838 27.7256 71.1322 27.7086 71.6593 27.8046C71.7346 28.1811 71.7515 33.7554 71.6725 34.322C71.3581 34.4048 71.0249 34.3521 70.6973 34.3615C70.3697 34.3709 70.0328 34.3615 69.7184 34.3615C69.5301 34.1187 69.6958 33.8419 69.5508 33.5859C69.2768 33.8787 68.9593 34.1276 68.6096 34.3239C68.1183 34.5326 67.5798 34.6043 67.0511 34.5313C66.5224 34.4584 66.0233 34.2436 65.6069 33.9097C65.2181 33.581 64.9078 33.1695 64.6987 32.7053C64.4896 32.2412 64.3869 31.7361 64.3983 31.2271C64.3983 30.587 64.4397 29.9696 64.7108 29.3766C65.1325 28.4466 66.1566 27.494 67.3934 27.5373C67.9902 27.5561 68.555 27.6164 69.0501 27.9703C69.2214 28.0964 69.372 28.2527 69.596 28.4522ZM69.7146 31.1123C69.7146 30.956 69.7146 30.8393 69.7146 30.7245C69.6959 30.4316 69.595 30.15 69.4235 29.912C69.252 29.6739 69.0169 29.489 68.7451 29.3784C68.4702 29.2485 68.1617 29.2072 67.8622 29.2602C67.5628 29.3131 67.2872 29.4577 67.0734 29.674C66.3524 30.3555 66.3204 31.4436 66.9605 32.2493C67.0977 32.4605 67.3061 32.6155 67.5478 32.6861C68.7169 32.944 69.2986 32.6221 69.6788 31.6187C69.7167 31.4527 69.7287 31.2819 69.7146 31.1123Z" fill="white"></path>
    <path d="M45.3395 31.6563C45.28 31.7795 45.2602 31.918 45.2828 32.0529C45.3054 32.1878 45.3693 32.3123 45.4656 32.4094C45.6061 32.5788 45.7795 32.718 45.9752 32.8186C46.171 32.9192 46.385 32.9792 46.6046 32.9948C46.8241 33.0105 47.0445 32.9815 47.2526 32.9097C47.4606 32.8379 47.6519 32.7247 47.8151 32.5769C47.8677 32.5129 47.9334 32.4608 48.0077 32.4241C48.082 32.3874 48.1633 32.367 48.2462 32.3642C48.7959 32.3736 49.3474 32.3642 49.8971 32.3736C49.9539 32.3853 50.0085 32.4056 50.059 32.4338C50.0322 32.6805 49.9568 32.9194 49.8373 33.1368C49.7177 33.3543 49.5564 33.5459 49.3625 33.7008C48.6852 34.2779 47.8219 34.5902 46.9321 34.5799C46.3109 34.5649 45.7066 34.5385 45.1211 34.3032C44.6022 34.1144 44.1456 33.7859 43.8014 33.3541C43.4573 32.9223 43.2391 32.4038 43.1708 31.8559C43.1445 31.7072 43.0899 31.566 43.0767 31.4191C43.0075 30.7374 43.1158 30.0493 43.3911 29.4218C43.8674 28.377 44.7333 27.8084 45.8384 27.558C46.7872 27.3295 47.7878 27.483 48.6246 27.9854C49.5658 28.5389 50.1438 29.3615 50.1814 30.4948C50.1908 30.7791 50.1814 31.0596 50.1814 31.3476C50.1863 31.3895 50.1816 31.4319 50.1677 31.4717C50.1538 31.5116 50.131 31.5477 50.1011 31.5774C50.0712 31.6071 50.0349 31.6297 49.995 31.6434C49.9551 31.657 49.9126 31.6615 49.8708 31.6563H45.3527H45.3395ZM45.2002 30.2011C45.8064 30.299 47.7021 30.2783 48.041 30.1748C48.0711 29.674 47.8941 29.3088 47.4762 29.113C47.2219 28.9895 46.9428 28.9253 46.6601 28.9253C46.3774 28.9253 46.0983 28.9895 45.844 29.113C45.6603 29.1945 45.5115 29.3386 45.4242 29.5197C45.3113 29.7324 45.2356 29.9629 45.2002 30.2011Z" fill="white"></path>
    <path d="M109.273 34.5517C108.233 34.6684 107.36 34.2543 106.592 33.5935C106.283 33.3153 106.044 32.9692 105.892 32.5826C105.366 31.3269 105.423 30.1014 106.193 28.9718C106.757 28.1379 107.59 27.6974 108.606 27.543C109.246 27.456 109.897 27.5002 110.519 27.6729C111.837 28.0099 112.59 28.9229 112.902 30.2294C113.08 30.9783 113.014 31.7646 112.714 32.4734C112.39 33.2687 111.771 33.9086 110.988 34.2599C110.456 34.5213 109.86 34.6227 109.273 34.5517ZM110.895 31.0859C110.913 30.7002 110.813 30.3182 110.609 29.9903C110.221 29.2768 109 28.9511 108.275 29.6138C107.674 30.1786 107.58 30.8544 107.78 31.6187C107.833 31.8409 107.936 32.0482 108.08 32.2253C108.224 32.4024 108.407 32.5449 108.613 32.6421C108.82 32.7394 109.046 32.7889 109.275 32.787C109.503 32.7852 109.728 32.7321 109.933 32.6315C110.579 32.3247 110.863 31.7844 110.895 31.0859Z" fill="white"></path>
    <path d="M75.4207 27.6578V28.552C75.7972 28.0832 76.1624 27.7237 76.6914 27.622C77.377 27.4542 78.0967 27.4902 78.7622 27.7255C79.502 28.0173 79.7919 28.6668 79.9444 29.401C80.0362 29.976 80.069 30.5588 80.0423 31.1405V34.3013C79.6658 34.4142 79.3175 34.3502 78.9749 34.3596C78.6323 34.369 78.2765 34.3596 77.9546 34.3596C77.7889 34.1902 77.8454 34.0132 77.8454 33.8532C77.8454 32.7858 77.8454 31.7184 77.8454 30.6529C77.8441 30.454 77.8182 30.2561 77.7682 30.0637C77.725 29.848 77.6113 29.6529 77.445 29.5091C77.2786 29.3652 77.0691 29.2808 76.8495 29.2692C76.6162 29.2348 76.378 29.27 76.1647 29.3705C75.9513 29.471 75.7724 29.6322 75.6503 29.834C75.5054 30.0582 75.4294 30.32 75.432 30.587C75.4452 31.6544 75.432 32.7218 75.432 33.7873C75.4552 33.9641 75.4372 34.1439 75.3793 34.3126C75.0724 34.3973 74.7392 34.3408 74.4135 34.3521C74.0878 34.3634 73.749 34.3521 73.444 34.3521L73.3819 34.2862C73.3706 34.273 73.3555 34.2598 73.3536 34.2467C73.3536 34.1469 73.3311 34.0471 73.3311 33.9473C73.3311 31.8954 73.3354 29.8434 73.3442 27.7914C73.3442 27.7632 73.3706 27.7331 73.412 27.6484C74.0332 27.6465 74.6921 27.6502 75.4207 27.6578Z" fill="white"></path>
    <path d="M53.6886 29.3973C53.6886 30.1729 53.6886 30.9033 53.6886 31.6375C53.7028 31.7855 53.7338 31.9313 53.7808 32.0724C53.9107 32.5901 54.2533 32.8141 54.7805 32.7068C54.8933 32.6793 55.0089 32.6648 55.125 32.6635C55.189 32.6635 55.2511 32.6823 55.3377 32.6955C55.3904 32.9562 55.405 33.2231 55.381 33.488C55.381 33.7535 55.381 34.017 55.381 34.2806C55.086 34.4153 54.7638 34.4797 54.4397 34.4688C54.1573 34.4594 53.875 34.4858 53.5907 34.4688C52.5026 34.3822 51.8456 33.7949 51.6686 32.7369C51.5481 32.0234 51.6027 31.3118 51.582 30.5983C51.5726 30.2218 51.582 29.834 51.582 29.45C51.2714 29.2749 50.9363 29.4311 50.6144 29.3163C50.572 28.7897 50.5607 28.261 50.5805 27.7331C50.8968 27.5938 51.2074 27.7143 51.5519 27.6164C51.6366 27.0365 51.5368 26.4228 51.6065 25.7941C51.9402 25.749 52.2775 25.7364 52.6136 25.7564C52.9431 25.7564 53.2763 25.7564 53.5681 25.7564C53.7225 25.8995 53.6829 26.0407 53.6848 26.1687C53.6848 26.5188 53.6848 26.869 53.6848 27.2192C53.6848 27.607 53.7375 27.654 54.1121 27.6615C54.4435 27.6615 54.7748 27.6615 55.1118 27.6615C55.2379 27.9496 55.1739 28.2169 55.1833 28.4767C55.1927 28.7365 55.1833 29.0076 55.1833 29.3031C54.7033 29.4311 54.2157 29.29 53.6886 29.3973Z" fill="white"></path>
    <path d="M102.55 27.671H104.485C104.513 27.7011 104.527 27.7124 104.536 27.7256C104.546 27.7377 104.554 27.7518 104.559 27.767C104.568 27.8668 104.579 27.9666 104.579 28.0645C104.579 30.1127 104.576 32.1615 104.568 34.211C104.568 34.2392 104.544 34.2693 104.502 34.3578C103.872 34.3691 103.215 34.3578 102.588 34.3578C102.544 34.3126 102.531 34.3013 102.522 34.2882C102.51 34.2767 102.502 34.2624 102.497 34.2467C102.497 34.1489 102.477 34.0491 102.477 33.9493L102.488 27.8047C102.488 27.7764 102.514 27.7482 102.55 27.671Z" fill="white"></path>
    <path d="M99.6075 34.4651C98.9148 34.6138 98.2107 33.8099 98.2615 33.1341C98.3236 32.2907 98.815 31.7749 99.6132 31.7824C100.293 31.7824 100.963 32.1796 100.989 33.1153C101.01 33.793 100.359 34.6138 99.6075 34.4651Z" fill="white"></path>
    <path d="M103.576 27.0516C102.782 27.0516 102.185 26.5433 102.187 25.8204C102.196 25.4796 102.336 25.1554 102.576 24.9134C102.816 24.6715 103.139 24.53 103.48 24.5177C104.361 24.5177 104.822 25.0825 104.858 25.8355C104.888 26.3984 104.335 27.1664 103.576 27.0516Z" fill="white"></path>
    <path d="M20.5219 34.5668C19.5806 34.5668 18.6525 34.5856 17.7169 34.5668C16.5215 34.5385 15.6235 33.9719 14.9909 32.9685C14.692 32.4822 14.5342 31.9222 14.5354 31.3514C14.4952 30.514 14.6587 29.6795 15.0117 28.9191C15.0794 28.7855 15.1265 28.6405 15.1999 28.5106C15.2703 28.3986 15.31 28.2701 15.315 28.1379C15.3199 28.0057 15.29 27.8745 15.2281 27.7576C15.0887 27.4395 15.0276 27.0926 15.0499 26.746C15.0723 26.3994 15.1773 26.0633 15.3564 25.7657C15.5354 25.4681 15.7832 25.2177 16.0789 25.0356C16.3747 24.8536 16.7098 24.745 17.0561 24.7192C17.3392 24.6878 17.6256 24.7162 17.897 24.8025C18.1684 24.8887 18.4187 25.0309 18.6318 25.2199C18.7175 25.307 18.8257 25.3685 18.9444 25.3978C19.063 25.427 19.1875 25.4228 19.3039 25.3856C20.0866 25.1983 20.9025 25.1983 21.6853 25.3856C21.8115 25.4195 21.9443 25.4199 22.0707 25.3869C22.1971 25.3539 22.3128 25.2886 22.4063 25.1973C22.7788 24.8812 23.2491 24.7035 23.7376 24.6942C24.2261 24.685 24.7028 24.8447 25.087 25.1465C25.4806 25.4359 25.7631 25.8513 25.8878 26.3236C26.0125 26.7959 25.9717 27.2966 25.7723 27.7425C25.7102 27.8572 25.6789 27.986 25.6816 28.1163C25.6842 28.2467 25.7207 28.3741 25.7873 28.4861C26.2333 29.2936 26.4713 30.1993 26.4801 31.1217C26.5328 33.1718 24.9741 34.5385 23.3174 34.563C22.3762 34.5762 21.4481 34.563 20.5143 34.563L20.5219 34.5668ZM21.8566 30.5118C21.8566 30.6435 21.8566 30.7772 21.8566 30.909C21.8792 31.5321 22.2331 31.9048 22.8449 31.9368C23.127 31.9538 23.4099 31.9538 23.6921 31.9368C23.8764 31.9321 24.0552 31.8727 24.2058 31.7661C24.3563 31.6595 24.4717 31.5105 24.5373 31.3382C24.6112 31.178 24.6351 30.9993 24.6059 30.8253C24.5767 30.6514 24.4957 30.4903 24.3735 30.363C24.0765 30.0288 23.7623 29.7103 23.4323 29.4086C23.3056 29.2846 23.1433 29.2032 22.9682 29.1758C22.793 29.1485 22.6137 29.1766 22.4552 29.2561C22.2928 29.3236 22.1521 29.4344 22.0485 29.5765C21.9449 29.7187 21.8824 29.8866 21.8679 30.0618C21.8566 30.2115 21.8528 30.3617 21.8566 30.5118ZM19.1194 30.5118C19.1194 30.3781 19.1194 30.2463 19.1194 30.1127C19.1232 29.929 19.0712 29.7485 18.9704 29.5949C18.8696 29.4413 18.7246 29.3219 18.5546 29.2523C18.3955 29.1751 18.2168 29.148 18.042 29.1746C17.8672 29.2011 17.7046 29.2801 17.5757 29.4011C17.238 29.694 16.9233 30.0124 16.6344 30.3536C16.5183 30.4858 16.441 30.6475 16.4112 30.8209C16.3813 30.9943 16.4001 31.1726 16.4654 31.336C16.5308 31.4994 16.64 31.6415 16.7812 31.7465C16.9223 31.8516 17.0898 31.9155 17.2651 31.9312C17.5962 31.9641 17.9298 31.9641 18.2609 31.9312C18.4962 31.9164 18.717 31.8126 18.8785 31.6409C19.04 31.4693 19.1302 31.2426 19.1307 31.0069C19.1269 30.8393 19.1194 30.6718 19.1194 30.5118ZM20.5557 32.4527H19.5128C19.3792 32.4527 19.2342 32.4527 19.189 32.6183C19.1514 32.7539 19.2568 32.8292 19.3396 32.9082C19.6649 33.1969 20.0841 33.3576 20.519 33.3604C20.954 33.3632 21.3751 33.2078 21.7041 32.9233C21.802 32.8329 21.9131 32.7444 21.8453 32.5863C21.7775 32.4282 21.6683 32.4545 21.5516 32.4527H20.5557Z" fill="#1FE588"></path>
  </g>
  <defs>
    <clipPath id="clip0_3362_217">
      <rect width="102" height="21.3744" fill="white" transform="translate(11 19)"></rect>
    </clipPath>
  </defs>
</svg>
