<?xml version="1.0" encoding="UTF-8"?>
<svg xmlns="http://www.w3.org/2000/svg" width="125" height="60" viewBox="0 0 125 60" fill="none">
  <rect width="125" height="60.0001" rx="6" fill="#101010"></rect>
  <path d="M15.5686 24.3935C15.433 24.4416 15.3031 24.5042 15.1811 24.5803V24.5803L17.2567 18.2497L17.3813 17.8761H17.7203L17.6788 18.0007L15.6032 24.3728L15.5686 24.3935ZM20.6331 25.9087L21.0897 25.4521V25.0162C21.0955 24.9832 21.1098 24.9522 21.1312 24.9263L21.6501 24.4074V23.7155L20.6331 24.7326V25.9087ZM18.6543 25.7842C18.3983 25.0231 18.1354 24.2552 17.8725 23.4941C17.8621 23.4605 17.8482 23.428 17.831 23.3972C17.8318 23.4134 17.8318 23.4295 17.831 23.4457C17.6926 23.84 17.5542 24.2344 17.4228 24.6288C17.4104 24.6446 17.4037 24.6641 17.4037 24.6841C17.4037 24.7042 17.4104 24.7237 17.4228 24.7395C17.6368 24.92 17.8089 25.1451 17.9269 25.3991C18.0449 25.653 18.1061 25.9297 18.1061 26.2097C18.1061 26.4897 18.0449 26.7664 17.9269 27.0203C17.8089 27.2743 17.6368 27.4994 17.4228 27.6799C17.2775 27.8045 17.1184 27.9221 16.9592 28.0397L16.468 28.4133H16.5372C17.2178 28.6273 17.8355 29.005 18.3361 29.5134C18.8011 29.9899 19.1492 30.5677 19.3531 31.2016C19.4174 31.4043 19.4614 31.6128 19.4846 31.8242C19.4866 31.8995 19.4674 31.9738 19.4292 32.0387C19.3915 32.0927 19.338 32.1337 19.276 32.156C19.2141 32.1783 19.1467 32.1808 19.0833 32.1633C19.0148 32.148 18.9527 32.1118 18.9056 32.0598C18.8585 32.0077 18.8287 31.9424 18.8204 31.8727C18.7237 31.2679 18.4682 30.6997 18.0801 30.226L18.0316 30.1707H17.0146L15.3264 31.8934H15.8938C15.9268 31.8992 15.9578 31.9135 15.9837 31.9349L17.0699 32.9589H18.1077C18.7329 32.8971 19.3128 32.6052 19.7347 32.1397C20.1566 31.6743 20.3905 31.0687 20.3909 30.4405V29.0014C20.3427 29.0081 20.2938 29.0081 20.2456 29.0014C20.0505 28.9725 19.8627 28.9067 19.6921 28.8077C19.4172 28.6597 19.1854 28.4429 19.0193 28.1786C18.8531 27.9142 18.7584 27.6113 18.7443 27.2994C18.7443 26.9258 18.7443 26.5522 18.7443 26.1786C18.7416 26.0517 18.7206 25.9259 18.682 25.805L18.6543 25.7842ZM14.7037 28.9253L15.5893 28.2334L15.9629 27.9428L16.039 27.8875H14.9943L14.6069 28.1642C14.5817 28.1686 14.5559 28.1686 14.5308 28.1642H12.3168C12.1892 28.4716 12.1053 28.7953 12.0677 29.1259H13.998C14.0156 29.1249 14.0331 29.1276 14.0495 29.1339C14.0659 29.1401 14.0808 29.1498 14.0932 29.1622C14.1056 29.1746 14.1153 29.1895 14.1215 29.2059C14.1278 29.2223 14.1305 29.2399 14.1295 29.2574V31.2361H14.4132L16.5234 29.1605C16.2984 29.0823 16.0668 29.0244 15.8315 28.9876C15.8057 28.9819 15.779 28.9827 15.7536 28.99C15.7282 28.9972 15.7051 29.0107 15.6862 29.0291C15.4856 29.1882 15.278 29.3404 15.0704 29.4926C15.0201 29.5277 14.9638 29.5535 14.9044 29.5687C14.8313 29.583 14.7555 29.5706 14.6908 29.5338C14.626 29.497 14.5766 29.4382 14.5515 29.3681C14.5217 29.2968 14.5171 29.2175 14.5385 29.1433C14.5599 29.069 14.606 29.0043 14.6691 28.9599V28.9599L14.7037 28.9253ZM13.2301 26.905C13.1539 26.9742 13.0917 27.0434 13.0225 27.1195L12.898 27.2717H14.4616L15.8453 26.2823V26.227C15.8453 26.1353 15.8818 26.0473 15.9466 25.9824C16.0115 25.9175 16.0995 25.8811 16.1913 25.8811C16.283 25.8811 16.371 25.9175 16.4359 25.9824C16.5007 26.0473 16.5372 26.1353 16.5372 26.227C16.5372 26.3187 16.5007 26.4067 16.4359 26.4716C16.371 26.5365 16.283 26.5729 16.1913 26.5729C16.12 26.5704 16.0508 26.5489 15.9906 26.5107L14.6069 27.5139C14.5817 27.5183 14.5559 27.5183 14.5308 27.5139H12.6973L12.6074 27.6453C12.552 27.7353 12.4967 27.8391 12.4482 27.9359H14.4685L14.7245 27.7491L14.849 27.6592C14.8742 27.6548 14.9 27.6548 14.9251 27.6592H16.3781C16.5718 27.5208 16.7655 27.3686 16.9523 27.2233C17.1427 27.0839 17.2877 26.8912 17.3689 26.6696C17.4502 26.4481 17.4641 26.2074 17.409 25.9779C17.3658 25.7683 17.27 25.573 17.1304 25.4107C16.9909 25.2484 16.8123 25.1243 16.6114 25.0503C16.4106 24.9762 16.1942 24.9545 15.9827 24.9873C15.7712 25.02 15.5715 25.1062 15.4025 25.2376L13.8597 26.4069C13.6383 26.5729 13.4099 26.7321 13.1678 26.912L13.2301 26.905ZM19.6022 22.6224C19.4585 22.8238 19.3856 23.067 19.3946 23.3142V26.2132L19.789 25.8188V22.4079C19.7175 22.4728 19.6526 22.5447 19.5953 22.6224H19.6022ZM20.64 29.0014V30.4267C20.644 30.9583 20.4947 31.4799 20.21 31.929C19.9254 32.378 19.5174 32.7356 19.0348 32.9589H19.2424C19.914 32.9589 20.5581 32.6921 21.033 32.2172C21.5079 31.7423 21.7747 31.0982 21.7747 30.4267V28.8699C21.7401 28.78 21.7193 28.6901 21.6916 28.5932C21.4048 28.8211 21.0542 28.9541 20.6884 28.9737L20.64 29.0014ZM12.047 29.5272C12.047 30.0669 12.047 30.6135 12.047 31.1531V31.25H13.8666V29.4027H12.0539V29.5272H12.047ZM17.7618 41.4482H17.8033L17.8794 41.4966V34.6609H16.1913C16.1638 34.6663 16.1356 34.6663 16.1082 34.6609L15.0843 33.8445H13.0087C13.2252 34.1031 13.4713 34.3353 13.742 34.5364C14.4383 35.0542 15.282 35.3355 16.1497 35.3389C16.2023 35.3285 16.2563 35.3285 16.3089 35.3389C16.3803 35.3697 16.439 35.4241 16.4751 35.4931C16.5112 35.562 16.5225 35.6412 16.507 35.7175C16.4916 35.7937 16.4505 35.8623 16.3904 35.9118C16.3304 35.9613 16.2552 35.9887 16.1774 35.9893C15.7769 35.9815 15.3791 35.921 14.9943 35.8094L14.7522 35.7402L15.9283 36.9164H17.2706C17.2881 36.9154 17.3056 36.9181 17.322 36.9244C17.3385 36.9306 17.3533 36.9403 17.3658 36.9527C17.3782 36.9651 17.3878 36.98 17.3941 36.9964C17.4003 37.0128 17.403 37.0303 17.402 37.0479V41.1991L17.7756 41.4343L17.7618 41.4482ZM16.9731 40.9915L17.0492 41.033L17.1184 41.0745V37.1724H15.8453C15.8123 37.1666 15.7813 37.1523 15.7554 37.1309L14.6553 36.0446V36.4667L15.6378 37.4284H16.7102C16.7277 37.4274 16.7452 37.4301 16.7616 37.4363C16.778 37.4426 16.7929 37.4522 16.8053 37.4647C16.8178 37.4771 16.8274 37.492 16.8337 37.5084C16.8399 37.5248 16.8426 37.5423 16.8416 37.5598V40.8877L16.9731 40.9638V40.9915ZM13.6798 20.3184L8.1448 23.501L12.9879 26.1924C13.0571 25.9918 13.147 25.7565 13.2093 25.5628C13.576 24.5112 13.9358 23.4872 14.3094 22.4148C14.3198 22.3896 14.3252 22.3625 14.3252 22.3352C14.3252 22.3079 14.3198 22.2809 14.3094 22.2557L13.832 20.8235C13.7766 20.6644 13.7213 20.5052 13.6728 20.353L13.6798 20.3184ZM28.4028 35.671V24.3589L25.2617 26.1094V28.3441C25.243 28.7437 25.0921 29.1258 24.8327 29.4304C24.8088 29.4626 24.7944 29.501 24.7912 29.5411V31.2016C24.7942 31.6174 24.7406 32.0317 24.6321 32.4331C24.4644 33.0746 24.1641 33.6739 23.7505 34.1923C23.337 34.7106 22.8195 35.1366 22.2313 35.4427C22.2153 35.4519 22.2019 35.465 22.1922 35.4807C22.1825 35.4964 22.1769 35.5142 22.1759 35.5327C22.1759 36.2245 22.1759 36.9164 22.1759 37.6083C22.1759 37.8366 22.1759 38.0649 22.1759 38.3001V38.9436V39.3034L28.4028 35.7056V35.671ZM15.4786 37.6844L14.6415 36.8472V39.6562L15.3887 40.0852L16.5649 40.777V37.7121H15.5686C15.5355 37.7062 15.5045 37.6919 15.4786 37.6705V37.6705V37.6844ZM13.9773 37.8089V35.5119C13.9786 35.4912 13.9733 35.4707 13.9621 35.4532C13.9509 35.4358 13.9344 35.4224 13.915 35.415C13.3326 35.1131 12.8208 34.691 12.4136 34.1766C11.8275 33.3617 11.465 32.4076 11.362 31.4091V31.2016C11.362 30.6826 11.362 30.1568 11.362 29.6379C11.3759 29.2429 11.4339 28.8507 11.535 28.4687C11.6937 27.8984 11.9668 27.3664 12.3375 26.905L7.74351 24.3589V35.678L13.9704 39.2826V37.802L13.9773 37.8089ZM15.361 19.3429V19.3844C15.3591 19.3637 15.3591 19.3428 15.361 19.3221L15.5132 18.8862L15.2918 18.2636L15.278 18.056H14.9459L15.0773 18.4435L15.3818 19.3567L15.361 19.3429ZM14.6691 19.758C14.6489 19.7533 14.6304 19.7431 14.6157 19.7284C14.601 19.7137 14.5908 19.6952 14.5861 19.675L14.3025 18.8793L14.1433 18.4158H13.7559C13.832 18.6303 13.9012 18.8517 13.9773 19.0661C14.0534 19.2806 14.1156 19.4882 14.1918 19.6957C14.2263 19.7857 14.254 19.8895 14.2886 19.9794C14.427 20.3945 14.5723 20.8027 14.7107 21.2179C14.7069 21.2431 14.7069 21.2687 14.7107 21.294C14.7107 21.2179 14.7591 21.1556 14.7868 21.0933L15.2434 19.7926H14.6345L14.6691 19.758ZM20.896 22.2141C20.6609 22.1313 20.4046 22.1313 20.1695 22.2141L20.0519 22.2557V25.8603C20.0461 25.8934 20.0318 25.9244 20.0104 25.9503L19.3877 26.5729V27.2095C19.3889 27.4994 19.5004 27.778 19.6996 27.9888C19.8988 28.1995 20.1707 28.3266 20.4601 28.3441C20.6644 28.3545 20.8677 28.309 21.0482 28.2127C21.2487 28.1035 21.4125 27.9374 21.5187 27.7353L21.5602 27.6453C21.6182 27.5099 21.6465 27.3637 21.6432 27.2164V24.7741L21.3526 25.0647V25.5005C21.3468 25.5336 21.3325 25.5646 21.3111 25.5905L20.6192 26.2823V26.8774C20.683 26.9045 20.7373 26.9498 20.7754 27.0077C20.8136 27.0655 20.8338 27.1333 20.8337 27.2025C20.8337 27.2943 20.7973 27.3823 20.7324 27.4471C20.6675 27.512 20.5795 27.5485 20.4878 27.5485C20.3966 27.5467 20.3096 27.5097 20.2451 27.4452C20.1806 27.3807 20.1436 27.2937 20.1418 27.2025C20.1426 27.1335 20.1632 27.0661 20.2013 27.0084C20.2393 26.9507 20.2931 26.9052 20.3563 26.8774V24.6634C20.3621 24.6303 20.3764 24.5993 20.3978 24.5734L21.6501 23.3211C21.6601 23.0802 21.5931 22.8423 21.4587 22.642C21.3244 22.4417 21.1297 22.2894 20.9029 22.2072L20.896 22.2141ZM14.0188 25.3968C14.0176 25.4106 14.0176 25.4245 14.0188 25.4383V25.4383L14.4547 25.1062L14.7937 24.8502L16.8693 18.4573L17.1114 17.7101C17.1202 17.6839 17.1369 17.6612 17.1592 17.645C17.1816 17.6289 17.2084 17.6202 17.236 17.6201H17.7618L17.8587 17.3641C17.8265 17.3313 17.8013 17.2924 17.7847 17.2495C17.768 17.2067 17.7602 17.161 17.7618 17.1151C17.7618 17.0233 17.7983 16.9353 17.8631 16.8704C17.928 16.8056 18.016 16.7691 18.1077 16.7691C18.1989 16.7709 18.2859 16.8079 18.3504 16.8724C18.4149 16.9369 18.4519 17.0239 18.4537 17.1151C18.4538 17.2033 18.4203 17.2883 18.3598 17.3526C18.2993 17.4169 18.2166 17.4557 18.1285 17.461L18.0109 17.8208L15.8799 24.3174C15.9927 24.3069 16.1062 24.3069 16.2189 24.3174L17.4574 20.526C17.4661 20.4998 17.4828 20.4771 17.5051 20.4609C17.5275 20.4448 17.5544 20.4361 17.5819 20.436H18.1631L18.6751 18.9485L18.9034 18.2566C18.9864 18.0076 19.0764 17.7654 19.1594 17.5163C19.1687 17.466 19.1756 17.4152 19.1801 17.3641C19.2372 17.0816 19.1838 16.7879 19.0311 16.5434C18.8783 16.2989 18.6378 16.1222 18.3588 16.0496C18.0798 15.977 17.7836 16.014 17.5311 16.1529C17.2785 16.2919 17.0887 16.5223 17.0007 16.7968C16.9246 17.0182 16.8416 17.2396 16.7655 17.4887C16.6064 17.9453 16.4473 18.395 16.295 18.8724L16.046 19.5643C15.6862 20.5329 15.3403 21.5154 14.9943 22.5601L14.0049 25.4037L14.0188 25.3968ZM19.9758 35.2974C20.1418 35.2974 20.3079 35.2974 20.4739 35.2974C21.3971 35.1948 22.2557 34.7741 22.9024 34.1074C23.6352 33.3845 24.0656 32.41 24.1063 31.3814C24.1063 30.9248 24.1063 30.4682 24.1063 29.9977V29.9562C23.9561 30.0094 23.8007 30.0465 23.6427 30.0669V31.0355C23.6427 31.7695 23.3511 32.4734 22.8321 32.9924C22.3131 33.5114 21.6092 33.803 20.8752 33.803H18.9587V35.8786L19.8374 36.7365H21.4979V35.7402H21.4218C20.9601 35.8833 20.4799 35.9579 19.9965 35.9616C19.9483 35.9638 19.9001 35.955 19.8558 35.9358C19.8114 35.9166 19.772 35.8876 19.7406 35.8509C19.6938 35.8049 19.6632 35.745 19.6532 35.6802C19.6432 35.6154 19.6544 35.5491 19.6852 35.4912C19.7093 35.4305 19.7514 35.3788 19.8058 35.3429C19.8603 35.307 19.9244 35.2887 19.9896 35.2905V35.2905L19.9758 35.2974ZM18.2323 22.2072C18.2137 22.2473 18.2041 22.291 18.2041 22.3352C18.2041 22.3794 18.2137 22.4231 18.2323 22.4632C18.3845 22.8853 18.5229 23.3004 18.6612 23.7224C18.6721 23.7559 18.686 23.7883 18.7028 23.8193C18.7028 23.8193 18.7028 23.757 18.7028 23.7293C18.7131 23.6258 18.7131 23.5215 18.7028 23.418C18.6812 23.178 18.7093 22.9362 18.7855 22.7076C18.8617 22.479 18.9843 22.2686 19.1455 22.0896C19.3302 21.8692 19.5684 21.7 19.8374 21.5984C20.0175 21.5465 20.2036 21.5186 20.3909 21.5154C20.7629 21.4869 21.1345 21.5757 21.4534 21.7693C21.7724 21.9629 22.0226 22.2515 22.169 22.5947C22.2175 22.7123 22.259 22.8368 22.3005 22.9683C22.5595 22.7543 22.8731 22.6168 23.2059 22.5713C23.5388 22.5257 23.8778 22.574 24.1848 22.7106C24.4917 22.8472 24.7545 23.0667 24.9435 23.3444C25.1326 23.6222 25.2403 23.9472 25.2548 24.2828V25.0301L27.9807 23.5149L19.4915 18.6026C19.0072 19.9863 18.2738 22.1242 18.2323 22.228V22.2072ZM21.2765 39.7669L21.4356 39.6424V36.9925H19.7406C19.7075 36.9867 19.6765 36.9724 19.6506 36.951L18.9587 36.2591V37.4907L21.2834 39.7877L21.2765 39.7669ZM21.0205 39.9191L18.7235 37.6221C18.7028 37.5958 18.6886 37.565 18.682 37.5322V33.7961H18.1285V41.6142V41.6557L20.896 40.0091L20.9928 39.9537L21.0205 39.9191ZM13.4584 17.5855C13.5206 17.7723 13.5829 17.9591 13.6521 18.1459H14.2263C14.2542 18.1449 14.2816 18.1531 14.3041 18.1694C14.3267 18.1857 14.3432 18.2091 14.3509 18.2359L14.5238 18.741L14.7868 19.4951H15.1465L14.8421 18.5818L14.5792 17.7931L14.4685 17.4679C14.392 17.4645 14.3189 17.4353 14.2611 17.3851C14.2033 17.3348 14.1642 17.2665 14.1502 17.1912V17.122C14.1502 17.0302 14.1867 16.9422 14.2516 16.8774C14.3164 16.8125 14.4044 16.776 14.4962 16.776C14.5811 16.7751 14.6631 16.8073 14.7245 16.866C14.7617 16.8974 14.7915 16.9367 14.8118 16.9809C14.8321 17.0251 14.8425 17.0733 14.8421 17.122C14.8417 17.1715 14.831 17.2205 14.8108 17.2657C14.7905 17.311 14.7611 17.3515 14.7245 17.3849L14.8144 17.6616L14.8559 17.7862H15.3749C15.4027 17.7851 15.4301 17.7934 15.4526 17.8097C15.4752 17.826 15.4917 17.8494 15.4994 17.8761L15.5893 18.139L15.7139 18.4919L15.9007 17.9661C15.8977 17.9524 15.8977 17.9382 15.9007 17.9245C15.9124 17.8997 15.9185 17.8725 15.9185 17.845C15.9185 17.8175 15.9124 17.7903 15.9007 17.7654C15.8246 17.5579 15.7623 17.3572 15.6862 17.1566C15.6101 16.9559 15.5893 16.8798 15.5478 16.7414C15.5158 16.6428 15.4691 16.5495 15.4094 16.4647C15.3581 16.3904 15.295 16.325 15.2226 16.271C15.0874 16.1558 14.9271 16.0739 14.7544 16.032C14.5818 15.9901 14.4018 15.9893 14.2288 16.0297C14.0558 16.0701 13.8947 16.1505 13.7585 16.2645C13.6223 16.3785 13.5148 16.5229 13.4445 16.6861C13.3889 16.8083 13.356 16.9396 13.3477 17.0735C13.3487 17.2288 13.3744 17.383 13.4238 17.5302C13.4212 17.5509 13.4212 17.5718 13.4238 17.5924L13.4584 17.5855ZM19.8374 17.6893L29.3852 23.2243V36.2245L18.087 42.735L6.79565 36.2245V23.2035L13.3615 19.4397L13.0986 18.6718L6 22.74V36.6881L18.0731 43.6552L30.1463 36.6881V22.74L19.872 16.8106C19.9357 17.104 19.9238 17.4087 19.8374 17.6962V17.6893ZM22.3489 24.352V24.5803L22.9716 25.203C22.9923 25.2294 23.0065 25.2602 23.0131 25.293V27.2648H23.366V25.0923L22.3766 24.103C22.3505 24.1841 22.332 24.2675 22.3212 24.352H22.3489ZM16.5095 24.352C16.5869 24.3615 16.6633 24.3777 16.7378 24.4005H16.807C16.8624 24.2552 16.9108 24.103 16.9662 23.9507L17.2913 22.8991L17.4989 22.3248C17.6926 21.7713 17.8794 21.2248 18.0662 20.6782H17.6788L16.4888 24.3174L16.5095 24.352ZM17.8933 33.8445H15.5132L16.2051 34.4188H17.8379V33.8445H17.8933ZM13.6106 32.9727H16.6756L15.8522 32.1494H15.0635L14.5654 32.6476C14.539 32.6682 14.5082 32.6824 14.4754 32.6891H12.3306C12.3721 32.7859 12.4067 32.8828 12.4552 32.9797H13.6106V32.9727ZM22.4458 23.8193L22.8401 24.2137L23.8088 23.245C23.7042 23.2088 23.5943 23.1901 23.4836 23.1897C23.2684 23.1883 23.0569 23.2464 22.8726 23.3575C22.6883 23.4686 22.5382 23.6284 22.4389 23.8193V23.8193H22.4458ZM12.2268 32.4123H14.4062L14.9044 31.9142L16.8555 29.9631C16.8818 29.9424 16.9126 29.9282 16.9454 29.9216H17.7618C17.6857 29.8524 17.6165 29.7832 17.5335 29.7209C17.3025 29.5336 17.0492 29.3756 16.7793 29.2505L14.5584 31.4783C14.5321 31.499 14.5013 31.5132 14.4685 31.5198H12.0608C12.0608 31.6098 12.0608 31.6997 12.0954 31.7896C12.1291 32.0004 12.1776 32.2084 12.2407 32.4123H12.2268V32.4123ZM20.8337 33.5401C21.5053 33.5401 22.1494 33.2733 22.6243 32.7984C23.0992 32.3235 23.366 31.6794 23.366 31.0078V30.053C23.097 30.037 22.836 29.9563 22.6049 29.8178C22.3909 29.6995 22.2027 29.5395 22.0514 29.3473V30.4197C22.0514 31.1537 21.7598 31.8576 21.2408 32.3766C20.7218 32.8956 20.0179 33.1872 19.2839 33.1872H12.5866C12.647 33.2951 12.714 33.399 12.7873 33.4986H20.8406L20.8337 33.5401ZM24.5906 27.0503V24.2828C24.5864 24.0986 24.5368 23.9183 24.4463 23.7578C24.3558 23.5973 24.2271 23.4616 24.0717 23.3627L23.0408 24.3935L23.5804 24.9332C23.6011 24.9595 23.6153 24.9903 23.622 25.0231V27.929C23.6674 27.9385 23.7105 27.9569 23.7488 27.9831C23.7871 28.0093 23.8199 28.0428 23.8453 28.0817C23.8707 28.1206 23.8881 28.164 23.8967 28.2097C23.9053 28.2553 23.9048 28.3022 23.8952 28.3476C23.8857 28.393 23.8673 28.4361 23.8411 28.4744C23.8149 28.5128 23.7814 28.5455 23.7426 28.5709C23.7037 28.5963 23.6602 28.6138 23.6146 28.6223C23.569 28.6309 23.5221 28.6304 23.4767 28.6209C23.3855 28.6191 23.2985 28.5821 23.234 28.5176C23.1695 28.4531 23.1325 28.3661 23.1307 28.2749C23.1292 28.2044 23.1498 28.1352 23.1894 28.077C23.2291 28.0187 23.286 27.9742 23.3521 27.9498V27.5346H22.8609C22.8434 27.5356 22.8258 27.5329 22.8094 27.5267C22.793 27.5204 22.7781 27.5108 22.7657 27.4984C22.7533 27.4859 22.7437 27.4711 22.7374 27.4546C22.7311 27.4382 22.7284 27.4207 22.7294 27.4032V25.3276L22.342 24.9747V25.6666V27.9221C22.342 28.0951 22.342 28.268 22.342 28.441C22.3828 28.7184 22.5248 28.9708 22.7407 29.1497C22.9566 29.3285 23.2311 29.4211 23.5113 29.4096C23.8025 29.397 24.0773 29.2715 24.2775 29.0597C24.4777 28.8479 24.5875 28.5664 24.5837 28.2749V27.7007C24.5837 27.4793 24.5837 27.2579 24.5837 27.0088L24.5906 27.0503Z" fill="url(#paint0_linear_1818_1361)"></path>
  <path d="M42.8075 31.8035V33.7892H37.0649V25.8534H39.2928V31.8104H42.8075V31.8035ZM43.3471 30.738V25.8396H45.575V30.7518C45.575 31.106 45.7156 31.4456 45.9661 31.696C46.2165 31.9465 46.5561 32.0871 46.9103 32.0871C47.2644 32.0871 47.6041 31.9465 47.8545 31.696C48.1049 31.4456 48.2456 31.106 48.2456 30.7518V25.8396H50.4734V30.738C50.4734 32.8897 49.0136 33.9621 46.9033 33.9621C44.7931 33.9621 43.3333 32.8966 43.3333 30.738H43.3471ZM51.1584 29.8178C51.1584 27.2717 52.6874 25.6666 55.2266 25.6666C57.233 25.6666 58.8312 26.7943 59.1149 28.8008H56.8663C56.7806 28.4364 56.5693 28.1139 56.2694 27.8899C55.9695 27.6659 55.6002 27.5548 55.2266 27.5762C54.0573 27.5762 53.4761 28.4272 53.4761 29.8178C53.4761 31.2085 54.0573 32.0595 55.2266 32.0595C55.6279 32.079 56.022 31.9479 56.3318 31.6919C56.6415 31.436 56.8444 31.0736 56.9009 30.6757H59.1287C58.8727 32.7998 57.2814 33.969 55.2266 33.969C52.7704 33.969 51.1584 32.3639 51.1584 29.8178ZM64.6222 29.1259L67.7425 33.8237H65.1134L63.0378 30.6342L62.1383 31.5475V33.8237H59.9244V25.8534H62.1522V28.9945L65.065 25.8534H67.7633L64.6291 29.1259H64.6222ZM75.5122 25.8741L72.6064 30.7172V33.7753H70.3785V30.7172L67.4242 25.8741H69.9081L70.42 26.7667C70.7867 27.4101 71.1603 28.0605 71.5132 28.7039C71.8522 28.0466 72.2051 27.3686 72.5648 26.7528L73.0561 25.8741H75.4845H75.5122ZM85.8211 31.4368C85.8211 32.8205 84.9217 33.7822 82.8322 33.7822H78.8055V25.8534H82.7561C84.8317 25.8534 85.5236 26.8566 85.5236 27.8667C85.5367 28.2156 85.4448 28.5604 85.2598 28.8564C85.0748 29.1525 84.8051 29.3862 84.4858 29.5272C84.884 29.6679 85.2299 29.9268 85.4771 30.2692C85.7244 30.6117 85.8613 31.0214 85.8695 31.4437L85.8211 31.4368ZM81.0403 27.5831V28.9668H82.6039C82.7874 28.9668 82.9634 28.8939 83.0931 28.7642C83.2229 28.6344 83.2958 28.4584 83.2958 28.2749C83.2958 28.0914 83.2229 27.9155 83.0931 27.7857C82.9634 27.656 82.7874 27.5831 82.6039 27.5831H81.0472H81.0403ZM83.5172 31.3053C83.5172 30.8279 83.2127 30.6135 82.7146 30.6135H81.0472V32.0664H82.7215C83.2266 32.0664 83.5241 31.8242 83.5241 31.3745L83.5172 31.3053ZM92.3039 31.7966V33.7822H86.5614V25.8534H88.7892V31.8104H92.297L92.3039 31.7966ZM92.636 29.8109C92.636 28.7099 93.0734 27.654 93.8519 26.8755C94.6304 26.097 95.6863 25.6597 96.7872 25.6597C97.8882 25.6597 98.9441 26.097 99.7226 26.8755C100.501 27.654 100.938 28.7099 100.938 29.8109C100.938 30.9119 100.501 31.9677 99.7226 32.7463C98.9441 33.5248 97.8882 33.9621 96.7872 33.9621C95.6863 33.9621 94.6304 33.5248 93.8519 32.7463C93.0734 31.9677 92.636 30.9119 92.636 29.8109V29.8109ZM98.6553 29.8109C98.6553 28.4272 97.915 27.59 96.808 27.59C95.701 27.59 94.9676 28.4341 94.9676 29.8178C94.9676 31.2016 95.7079 32.0387 96.8149 32.0387C97.9219 32.0387 98.6622 31.2016 98.6622 29.8178L98.6553 29.8109ZM101.423 29.8109C101.423 27.2648 102.952 25.6597 105.491 25.6597C107.497 25.6597 109.096 26.7874 109.379 28.7938H107.131C107.045 28.4295 106.834 28.1069 106.534 27.883C106.234 27.659 105.865 27.5479 105.491 27.5692C104.322 27.5692 103.741 28.4202 103.741 29.8109C103.741 31.2016 104.322 32.0526 105.491 32.0526C105.892 32.0721 106.286 31.941 106.596 31.685C106.906 31.429 107.109 31.0666 107.165 30.6688H109.393C109.137 32.7998 107.546 33.9552 105.491 33.9552C103.042 33.9552 101.423 32.3501 101.423 29.804V29.8109ZM114.88 29.1259L118 33.8237H115.371L113.295 30.6342L112.396 31.5475V33.8237H110.168V25.8534H112.396V28.9945L115.295 25.8534H117.993L114.88 29.1259Z" fill="white"></path>
  <defs>
    <linearGradient id="paint0_linear_1818_1361" x1="-14.8184" y1="38.0234" x2="53.8775" y2="19.8825" gradientUnits="userSpaceOnUse">
      <stop offset="0.19" stop-color="white"></stop>
      <stop offset="0.22" stop-color="#FEF9EB"></stop>
      <stop offset="0.27" stop-color="#FEEBB9"></stop>
      <stop offset="0.34" stop-color="#FED569"></stop>
      <stop offset="0.37" stop-color="#FECB46"></stop>
      <stop offset="0.47" stop-color="#DDAF3D"></stop>
      <stop offset="0.68" stop-color="#8C6A26"></stop>
      <stop offset="0.84" stop-color="#483014"></stop>
    </linearGradient>
  </defs>
</svg>
